<mxfile host="app.diagrams.net" modified="2021-05-26T17:12:56.384Z" agent="5.0 (Windows NT 10.0; Win64; x64) AppleWebKit/537.36 (KHTML, like Gecko) Chrome/90.0.4430.212 Safari/537.36" etag="TLkOO1iz4hB4teQ6kp5T" version="14.6.9" type="github">
  <diagram id="ovcI5_7O5B7Jeav_aecU">
    <mxGraphModel dx="1038" dy="523" grid="1" gridSize="10" guides="1" tooltips="1" connect="1" arrows="1" fold="1" page="1" pageScale="1" pageWidth="850" pageHeight="1100" math="0" shadow="0">
      <root>
        <mxCell id="0" />
        <mxCell id="1" parent="0" />
      </root>
    </mxGraphModel>
  </diagram>
</mxfile>
